<svg viewBox="0 0 65 72" fill="none" xmlns="http://www.w3.org/2000/svg">
<path d="M34.3598 5.3069C33.147 4.89642 31.8327 4.89642 30.6198 5.3069L8.03317 12.9569C7.29749 13.1959 6.64774 13.6447 6.16387 14.2482C5.68001 14.8517 5.38315 15.5835 5.30984 16.3536C4.18651 30.4402 6.13651 40.8569 10.7665 48.7269C15.2465 56.3436 22.4132 61.8802 32.4898 66.0069C42.5765 61.8802 49.7498 56.3436 54.2298 48.7269C58.8632 40.8602 60.8132 30.4402 59.6898 16.3536C59.6165 15.5835 59.3197 14.8517 58.8358 14.2482C58.3519 13.6447 57.7022 13.1959 56.9665 12.9569L34.3598 5.3069ZM29.0165 0.573565C31.2689 -0.190045 33.71 -0.191217 35.9632 0.570232L58.5698 8.22023C60.2304 8.77325 61.6928 9.80016 62.7767 11.1743C63.8607 12.5485 64.5188 14.2099 64.6698 15.9536C65.8465 30.6536 63.8698 42.2069 58.5398 51.2636C53.1932 60.3469 44.6698 66.5902 33.4065 71.0269C32.8174 71.2591 32.1622 71.2591 31.5732 71.0269C20.3198 66.5902 11.7998 60.3469 6.45651 51.2636C1.12984 42.2069 -0.846826 30.6502 0.326508 15.9536C0.477579 14.2099 1.13566 12.5485 2.2196 11.1743C3.30354 9.80016 4.76595 8.77325 6.42651 8.22023L29.0165 0.573565Z" fill="currentColor"/>
<path opacity="0.5" d="M32.5 62.0347C49.2733 55.2347 57.1867 43.3081 55.6433 20.8114C55.47 18.2547 53.7233 16.0914 51.3 15.2481L35.2333 9.65474C34.3545 9.34876 33.4306 9.19215 32.5 9.19141V62.0347Z" fill="currentColor"/>
</svg>
