<svg width="70" height="67" viewBox="0 0 70 67" fill="none" xmlns="http://www.w3.org/2000/svg">
<path d="M23.275 65.2368L1.75 43.55C1.16667 42.9623 0.729167 42.3158 0.4375 41.6105C0.145833 40.9053 0 40.1706 0 39.4066C0 38.6425 0.145833 37.9079 0.4375 37.2026C0.729167 36.4974 1.16667 35.8509 1.75 35.2632L21.875 15.075L12.6 5.73026L18.025 0L53.025 35.2632C53.6083 35.8509 54.0318 36.4974 54.2955 37.2026C54.5592 37.9079 54.6898 38.6425 54.6875 39.4066C54.6852 40.1706 54.5545 40.9053 54.2955 41.6105C54.0365 42.3158 53.613 42.9623 53.025 43.55L31.5 65.2368C30.9167 65.8246 30.275 66.2653 29.575 66.5592C28.875 66.8531 28.1458 67 27.3875 67C26.6292 67 25.9 66.8531 25.2 66.5592C24.5 66.2653 23.8583 65.8246 23.275 65.2368ZM27.3875 20.6289L8.6625 39.4947H46.1125L27.3875 20.6289ZM62.3 67C60.2 67 58.4208 66.2501 56.9625 64.7502C55.5042 63.2503 54.775 61.4143 54.775 59.2421C54.775 57.6553 55.1693 56.1566 55.958 54.746C56.7467 53.3355 57.6357 51.9544 58.625 50.6026L62.3 45.8421L66.15 50.6026C67.0833 51.9544 67.9583 53.3355 68.775 54.746C69.5917 56.1566 70 57.6553 70 59.2421C70 61.4167 69.2417 63.2539 67.725 64.7537C66.2083 66.2536 64.4 67.0023 62.3 67Z" fill="#014553"/>
</svg>
