<svg width="78" height="78" viewBox="0 0 78 78" fill="none" xmlns="http://www.w3.org/2000/svg">
<g filter="url(#filter0_d_770_5523)">
<circle cx="39" cy="35" r="35" fill="#014553"/>
<circle cx="39" cy="35" r="33.5" stroke="#FEE185" stroke-width="3"/>
</g>
<path d="M54.3645 21.4393C55.4072 22.1976 55.6405 23.656 54.8822 24.6987L36.2155 50.3654C35.8145 50.9195 35.1947 51.2622 34.5092 51.3206C33.8238 51.3789 33.1603 51.1237 32.679 50.6424L23.3457 41.3091C22.4342 40.3976 22.4342 38.9174 23.3457 38.006C24.2572 37.0945 25.7374 37.0945 26.6488 38.006L34.0499 45.407L51.1124 21.9497C51.8707 20.907 53.329 20.6737 54.3718 21.432L54.3645 21.4393Z" fill="#FEE185"/>
<defs>
<filter id="filter0_d_770_5523" x="0" y="0" width="78" height="78" filterUnits="userSpaceOnUse" color-interpolation-filters="sRGB">
<feFlood flood-opacity="0" result="BackgroundImageFix"/>
<feColorMatrix in="SourceAlpha" type="matrix" values="0 0 0 0 0 0 0 0 0 0 0 0 0 0 0 0 0 0 127 0" result="hardAlpha"/>
<feOffset dy="4"/>
<feGaussianBlur stdDeviation="2"/>
<feComposite in2="hardAlpha" operator="out"/>
<feColorMatrix type="matrix" values="0 0 0 0 0 0 0 0 0 0 0 0 0 0 0 0 0 0 0.25 0"/>
<feBlend mode="normal" in2="BackgroundImageFix" result="effect1_dropShadow_770_5523"/>
<feBlend mode="normal" in="SourceGraphic" in2="effect1_dropShadow_770_5523" result="shape"/>
</filter>
</defs>
</svg>
