<svg width="70" height="56" viewBox="0 0 70 56" fill="none" xmlns="http://www.w3.org/2000/svg">
<path d="M16.4682 0.549189C17.8093 1.50851 18.1292 3.40192 17.1941 4.76517L10.3042 14.8633C9.79973 15.5954 9.01231 16.0625 8.13876 16.1382C7.26521 16.214 6.40397 15.911 5.78879 15.2799L0.867396 10.2308C-0.276828 9.04427 -0.276828 7.12562 0.867396 5.93908C2.01162 4.75255 3.89405 4.76517 5.05058 5.93908L7.48667 8.43838L12.3589 1.29393C13.2939 -0.0819461 15.1394 -0.410137 16.4682 0.549189ZM16.4682 20.7455C17.8093 21.7048 18.1292 23.5982 17.1941 24.9615L10.3042 35.0597C9.79973 35.7918 9.01231 36.2588 8.13876 36.3345C7.26521 36.4103 6.40397 36.1073 5.78879 35.4762L0.867396 30.4271C-0.289132 29.2406 -0.289132 27.3219 0.867396 26.148C2.02392 24.9741 3.89405 24.9615 5.03828 26.148L7.47437 28.6473L12.3466 21.5029C13.2816 20.127 15.1271 19.7988 16.4559 20.7581L16.4682 20.7455ZM27.566 8.08494C27.566 5.85072 29.3254 4.04568 31.5031 4.04568H66.0629C68.2406 4.04568 70 5.85072 70 8.08494C70 10.3192 68.2406 12.1242 66.0629 12.1242H31.5031C29.3254 12.1242 27.566 10.3192 27.566 8.08494ZM27.566 28.2813C27.566 26.047 29.3254 24.242 31.5031 24.242H66.0629C68.2406 24.242 70 26.047 70 28.2813C70 30.5155 68.2406 32.3205 66.0629 32.3205H31.5031C29.3254 32.3205 27.566 30.5155 27.566 28.2813ZM27.1418 48.2909C27.1418 46.0567 28.9012 44.2516 31.0789 44.2516L66.0629 44.4383C68.2406 44.4383 70 46.2434 70 48.4776C70 50.7118 68.2406 52.5169 66.0629 52.5169L31.0789 52.3301C28.9012 52.3301 27.1418 50.5251 27.1418 48.2909Z" fill="#014553"/>
<path d="M17.1941 44.6155C18.1292 43.2523 17.8093 41.3589 16.4682 40.3996L16.4559 40.4122C15.1271 39.4528 13.2816 39.781 12.3466 41.1569L7.47437 48.3014L5.03828 45.8021C3.89405 44.6155 2.02392 44.6282 0.867396 45.8021C-0.289132 46.976 -0.289132 48.8946 0.867396 50.0812L5.78879 55.1302C6.40397 55.7614 7.26521 56.0643 8.13876 55.9886C9.01231 55.9128 9.79973 55.4458 10.3042 54.7137L17.1941 44.6155Z" fill="#014553"/>
</svg>
