<svg width="80" height="80" viewBox="-2 -2 84 84" fill="none" xmlns="http://www.w3.org/2000/svg">
<path d="M43.399 1.33607C41.4768 -0.445356 38.5076 -0.445356 36.601 1.33607L1.59485 33.8392C0.0945899 35.2456 -0.405498 37.4177 0.344634 39.3242C1.09476 41.2306 2.92321 42.4963 4.98607 42.4963H7.48651V69.999C7.48651 75.5152 11.9717 80 17.4883 80H62.4961C68.0127 80 72.4979 75.5152 72.4979 69.999V42.4963H74.9983C77.0612 42.4963 78.9052 41.2306 79.6554 39.3242C80.4055 37.4177 79.9054 35.23 78.4052 33.8392L43.399 1.33607ZM37.4918 49.9971H42.4926C46.634 49.9971 49.9939 53.3568 49.9939 57.4978V72.4993H29.9904V57.4978C29.9904 53.3568 33.3504 49.9971 37.4918 49.9971Z" fill="currentColor"/>
</svg>
