<svg viewBox="0 0 70 70" fill="none" xmlns="http://www.w3.org/2000/svg">
<path d="M35 70C54.332 70 70 54.332 70 35C70 15.668 54.332 0 35 0C15.668 0 0 15.668 0 35C0 54.332 15.668 70 35 70ZM35 24.0625C32.5801 24.0625 30.625 26.0176 30.625 28.4375C30.625 30.2559 29.1621 31.7188 27.3438 31.7188C25.5254 31.7188 24.0625 30.2559 24.0625 28.4375C24.0625 22.3945 28.957 17.5 35 17.5C41.043 17.5 45.9375 22.3945 45.9375 28.4375C45.9375 34.8906 41.0156 37.625 38.2812 38.623V39.1426C38.2812 40.9609 36.8184 42.4238 35 42.4238C33.1816 42.4238 31.7188 40.9609 31.7188 39.1426V38.0352C31.7188 35.2324 33.7422 33.2227 35.834 32.5391C36.709 32.252 37.6387 31.7871 38.3223 31.1309C38.9102 30.5566 39.375 29.7637 39.375 28.4512C39.375 26.0312 37.4199 24.0762 35 24.0762V24.0625ZM30.625 50.3125C30.625 47.8926 32.5801 45.9375 35 45.9375C37.4199 45.9375 39.375 47.8926 39.375 50.3125C39.375 52.7324 37.4199 54.6875 35 54.6875C32.5801 54.6875 30.625 52.7324 30.625 50.3125Z" fill="currentColor"/>
</svg>
