<svg viewBox="0 0 86 90" fill="none" xmlns="http://www.w3.org/2000/svg">
<path d="M50.1961 0.000347016C54.8061 -0.069653 53.7467 10.4702 54.8367 13.8402C58.1066 15.1302 61.2167 16.8798 63.9666 19.1097C81.5561 11.5899 75.5266 13.4801 85.5164 28.7298C87.9064 32.6798 78.2363 37.03 75.8563 39.64C76.1263 41.4 76.2762 43.1803 76.2762 44.9603C76.2662 46.7401 76.1262 48.5199 75.8563 50.2796C78.2362 52.8896 87.9059 57.2399 85.5164 61.1898C75.5265 76.4397 81.5564 78.3298 63.9666 70.8099C61.2167 73.0399 58.1067 74.7904 54.8367 76.0804C53.7468 79.4507 54.806 89.9903 50.1961 89.9203C47.3259 89.7603 38.566 89.7603 35.6961 89.9203C31.0866 89.9899 32.1462 79.4508 31.0565 76.0804C27.7865 74.7904 24.6766 73.0399 21.9266 70.8099C4.33658 78.3299 10.3668 76.4398 0.376773 61.1898C-2.01322 57.2398 7.65595 52.8896 10.036 50.2796C9.76601 48.5199 9.62604 46.7401 9.61603 44.9603C9.62603 43.1803 9.76595 41.4 10.036 39.64C7.65559 37.03 -2.01316 32.6797 0.376773 28.7298C10.3664 13.4802 4.33671 11.5898 21.9266 19.1097C24.6765 16.8798 27.7866 15.1301 31.0565 13.8402C32.1464 10.4702 31.0864 -0.0692959 35.6961 0.000347016C38.566 0.160342 47.3258 0.160333 50.1961 0.000347016ZM38.2361 6.00035C36.9064 9.82038 38.6161 17.9695 34.0067 19.1498C20.3867 24.8498 27.4265 28.5297 11.5565 21.3597L6.83673 29.5404C9.37668 31.5403 12.6964 34.1102 15.1463 36.0101C17.6463 38.3001 15.1765 41.9203 15.5965 44.9603C15.1766 48.0003 17.6462 51.6206 15.1463 53.9105C12.6964 55.8104 9.37663 58.3803 6.83673 60.3802L11.5565 68.5599C27.4263 61.39 20.3867 65.0699 34.0067 70.7699C38.6163 71.9501 36.9062 80.1003 38.2361 83.9203H47.6561C48.9861 80.1003 47.2765 71.9499 51.8865 70.7699C65.5062 65.0699 58.4668 61.39 74.3367 68.5599L79.0565 60.3802C76.5165 58.3802 73.1959 55.8105 70.7459 53.9105C68.246 51.6206 70.7165 48.0002 70.2967 44.9603C70.7167 41.9204 68.2463 38.3001 70.7459 36.0101C73.1959 34.1101 76.5165 31.5404 79.0565 29.5404L74.3367 21.3597C58.4668 28.5297 65.5065 24.8497 51.8865 19.1498C47.2766 17.9698 48.986 9.82042 47.6561 6.00035H38.2361ZM42.9266 27.9701C65.2466 28.3601 65.2366 61.5408 42.9266 61.9408C20.6071 61.5404 20.5971 28.3704 42.9266 27.9701ZM42.9266 33.9701C28.5571 34.0504 28.5671 55.8604 42.9266 55.9408C57.2766 55.8708 57.2866 34.0501 42.9266 33.9701Z" fill="currentColor"/>
</svg>
