<svg width="80" height="80" viewBox="0 0 80 80" fill="none" xmlns="http://www.w3.org/2000/svg">
<path d="M22.8571 0C26.0179 0 28.5714 2.38333 28.5714 5.33333V10.6667H51.4286V5.33333C51.4286 2.38333 53.9821 0 57.1429 0C60.3036 0 62.8571 2.38333 62.8571 5.33333V10.6667H68.5714C74.875 10.6667 80 15.45 80 21.3333V69.3333C80 75.2167 74.875 80 68.5714 80H11.4286C5.125 80 0 75.2167 0 69.3333V21.3333C0 15.45 5.125 10.6667 11.4286 10.6667H17.1429V5.33333C17.1429 2.38333 19.6964 0 22.8571 0ZM11.4286 40V45.3333C11.4286 46.8 12.7143 48 14.2857 48H20C21.5714 48 22.8571 46.8 22.8571 45.3333V40C22.8571 38.5333 21.5714 37.3333 20 37.3333H14.2857C12.7143 37.3333 11.4286 38.5333 11.4286 40ZM34.2857 40V45.3333C34.2857 46.8 35.5714 48 37.1429 48H42.8571C44.4286 48 45.7143 46.8 45.7143 45.3333V40C45.7143 38.5333 44.4286 37.3333 42.8571 37.3333H37.1429C35.5714 37.3333 34.2857 38.5333 34.2857 40ZM60 37.3333C58.4286 37.3333 57.1429 38.5333 57.1429 40V45.3333C57.1429 46.8 58.4286 48 60 48H65.7143C67.2857 48 68.5714 46.8 68.5714 45.3333V40C68.5714 38.5333 67.2857 37.3333 65.7143 37.3333H60ZM11.4286 61.3333V66.6667C11.4286 68.1333 12.7143 69.3333 14.2857 69.3333H20C21.5714 69.3333 22.8571 68.1333 22.8571 66.6667V61.3333C22.8571 59.8667 21.5714 58.6667 20 58.6667H14.2857C12.7143 58.6667 11.4286 59.8667 11.4286 61.3333ZM37.1429 58.6667C35.5714 58.6667 34.2857 59.8667 34.2857 61.3333V66.6667C34.2857 68.1333 35.5714 69.3333 37.1429 69.3333H42.8571C44.4286 69.3333 45.7143 68.1333 45.7143 66.6667V61.3333C45.7143 59.8667 44.4286 58.6667 42.8571 58.6667H37.1429ZM57.1429 61.3333V66.6667C57.1429 68.1333 58.4286 69.3333 60 69.3333H65.7143C67.2857 69.3333 68.5714 68.1333 68.5714 66.6667V61.3333C68.5714 59.8667 67.2857 58.6667 65.7143 58.6667H60C58.4286 58.6667 57.1429 59.8667 57.1429 61.3333Z" fill="#014553"/>
</svg>
