<svg width="80" height="86" viewBox="0 0 80 86" fill="none" xmlns="http://www.w3.org/2000/svg">
<path d="M57.1429 0C60.3036 0 62.8571 2.56208 62.8571 5.73333V11.4667H68.5714C74.875 11.4667 80 16.6087 80 22.9333V74.5333C80 80.8579 74.875 86 68.5714 86H11.4286C5.125 86 0 80.8579 0 74.5333V22.9333C0 16.6087 5.125 11.4667 11.4286 11.4667H17.1429V5.73333C17.1429 2.56208 19.6964 0 22.8571 0C26.0179 0 28.5714 2.56208 28.5714 5.73333V11.4667H51.4286V5.73333C51.4286 2.56208 53.9821 0 57.1429 0ZM61.0714 28.9712C59.1607 27.5737 56.4821 28.0037 55.0893 29.9208L33.7679 59.34L24.4643 50.0054C22.7857 48.3213 20.0714 48.3213 18.4107 50.0054C16.75 51.6896 16.7321 54.4129 18.4107 56.0792L31.2679 68.9792C32.1607 69.875 33.3929 70.3229 34.625 70.2333C35.8571 70.1437 37.0179 69.4987 37.75 68.4775L62.0179 34.9733C63.4107 33.0563 62.9821 30.3687 61.0714 28.9712Z" fill="#014553"/>
</svg>
