<svg width="80" height="70" viewBox="0 0 80 70" fill="none" xmlns="http://www.w3.org/2000/svg">
<path d="M23.2969 5.125L21.6719 10H10C4.48438 10 0 14.4844 0 20V60C0 65.5156 4.48438 70 10 70H70C75.5156 70 80 65.5156 80 60V20C80 14.4844 75.5156 10 70 10H58.3281L56.7031 5.125C55.6875 2.0625 52.8281 0 49.5938 0H30.4062C27.1719 0 24.3125 2.0625 23.2969 5.125ZM40 25C48.2812 25 55 31.7188 55 40C55 48.2812 48.2812 55 40 55C31.7188 55 25 48.2812 25 40C25 31.7188 31.7188 25 40 25Z" fill="#014553"/>
</svg>
