<svg viewBox="0 0 75 42" fill="none" xmlns="http://www.w3.org/2000/svg">
<path d="M20.8333 8.39999C19.6528 8.39999 18.6639 7.99679 17.8667 7.19039C17.0695 6.38399 16.6695 5.38719 16.6667 4.19999C16.6639 3.0128 17.0639 2.016 17.8667 1.2096C18.6695 0.4032 19.6583 0 20.8333 0H70.8333C72.0139 0 73.0042 0.4032 73.8042 1.2096C74.6041 2.016 75.0028 3.0128 75 4.19999C74.9972 5.38719 74.5972 6.38539 73.8 7.19459C73.0028 8.00379 72.0139 8.40559 70.8333 8.39999H20.8333ZM20.8333 25.2C19.6528 25.2 18.6639 24.7968 17.8667 23.9904C17.0695 23.184 16.6695 22.1872 16.6667 21C16.6639 19.8128 17.0639 18.816 17.8667 18.0096C18.6695 17.2032 19.6583 16.8 20.8333 16.8H70.8333C72.0139 16.8 73.0042 17.2032 73.8042 18.0096C74.6041 18.816 75.0028 19.8128 75 21C74.9972 22.1872 74.5972 23.1854 73.8 23.9946C73.0028 24.8038 72.0139 25.2056 70.8333 25.2H20.8333ZM20.8333 41.9999C19.6528 41.9999 18.6639 41.5967 17.8667 40.7903C17.0695 39.9839 16.6695 38.9871 16.6667 37.7999C16.6639 36.6128 17.0639 35.616 17.8667 34.8096C18.6695 34.0032 19.6583 33.6 20.8333 33.6H70.8333C72.0139 33.6 73.0042 34.0032 73.8042 34.8096C74.6041 35.616 75.0028 36.6128 75 37.7999C74.9972 38.9871 74.5972 39.9853 73.8 40.7945C73.0028 41.6037 72.0139 42.0055 70.8333 41.9999H20.8333ZM4.16668 8.39999C2.98612 8.39999 1.99724 7.99679 1.20001 7.19039C0.402792 6.38399 0.00279214 5.38719 1.43678e-05 4.19999C-0.00276341 3.0128 0.397237 2.016 1.20001 1.2096C2.00279 0.4032 2.99168 0 4.16668 0C5.34168 0 6.33196 0.4032 7.13751 1.2096C7.94307 2.016 8.34168 3.0128 8.33334 4.19999C8.32501 5.38719 7.92501 6.38539 7.13334 7.19459C6.34168 8.00379 5.35279 8.40559 4.16668 8.39999ZM4.16668 25.2C2.98612 25.2 1.99724 24.7968 1.20001 23.9904C0.402792 23.184 0.00279214 22.1872 1.43678e-05 21C-0.00276341 19.8128 0.397237 18.816 1.20001 18.0096C2.00279 17.2032 2.99168 16.8 4.16668 16.8C5.34168 16.8 6.33196 17.2032 7.13751 18.0096C7.94307 18.816 8.34168 19.8128 8.33334 21C8.32501 22.1872 7.92501 23.1854 7.13334 23.9946C6.34168 24.8038 5.35279 25.2056 4.16668 25.2ZM4.16668 41.9999C2.98612 41.9999 1.99724 41.5967 1.20001 40.7903C0.402792 39.9839 0.00279214 38.9871 1.43678e-05 37.7999C-0.00276341 36.6128 0.397237 35.616 1.20001 34.8096C2.00279 34.0032 2.99168 33.6 4.16668 33.6C5.34168 33.6 6.33196 34.0032 7.13751 34.8096C7.94307 35.616 8.34168 36.6128 8.33334 37.7999C8.32501 38.9871 7.92501 39.9853 7.13334 40.7945C6.34168 41.6037 5.35279 42.0055 4.16668 41.9999Z" fill="#014553"/>
</svg>
