<svg width="65" height="70" viewBox="0 0 65 70" fill="none" xmlns="http://www.w3.org/2000/svg">
<path d="M0 8.23529C0 3.69301 3.64355 0 8.125 0H44.6875C49.1689 0 52.8125 3.69301 52.8125 8.23529H54.8438C60.4551 8.23529 65 12.8419 65 18.5294V30.8824C65 36.5699 60.4551 41.1765 54.8438 41.1765H34.5312C33.4141 41.1765 32.5 42.1029 32.5 43.2353V45.6415C34.8613 46.4908 36.5625 48.7812 36.5625 51.4706V63.8235C36.5625 67.2335 33.833 70 30.4688 70H26.4062C23.042 70 20.3125 67.2335 20.3125 63.8235V51.4706C20.3125 48.7812 22.0137 46.4908 24.375 45.6415V43.2353C24.375 37.5478 28.9199 32.9412 34.5312 32.9412H54.8438C55.9609 32.9412 56.875 32.0147 56.875 30.8824V18.5294C56.875 17.3971 55.9609 16.4706 54.8438 16.4706H52.8125C52.8125 21.0129 49.1689 24.7059 44.6875 24.7059H8.125C3.64355 24.7059 0 21.0129 0 16.4706V8.23529Z" fill="#014553"/>
</svg>
