<svg viewBox="0 0 60 60" fill="none" xmlns="http://www.w3.org/2000/svg">
<path d="M16.3703 41.1619L10.7488 44.9037L9.33497 50.6184L15.0075 49.1897L18.7687 43.5567L16.3703 41.1619ZM21.3171 36.4779L23.4533 38.6107L23.7633 38.5019C26.9556 37.3657 30.1683 35.0356 33.3844 31.3959C37.2649 27.0079 43.813 19.1944 52.9981 7.9963C53.1116 7.85859 53.1697 7.68363 53.161 7.5055C53.1524 7.32737 53.0776 7.15883 52.9513 7.03273C52.825 6.90663 52.6562 6.83199 52.4778 6.82335C52.2994 6.81472 52.1242 6.87271 51.9862 6.98602C40.7911 16.1465 32.9654 22.6878 28.5432 26.5725C24.8773 29.7904 22.547 32.9947 21.4295 36.1616L21.3171 36.4779ZM19.2219 55.1391L0 60L4.76969 40.7095L15.0041 33.8927C16.5463 29.5523 19.5591 25.4102 24.0427 21.4666C28.5398 17.514 36.4166 10.933 47.6731 1.72374C49.1174 0.53148 50.9552 -0.0801393 52.8271 0.00843375C54.699 0.0970068 56.4706 0.879405 57.7956 2.2027C59.1205 3.52599 59.9035 5.29506 59.9917 7.1641C60.0798 9.03315 59.4666 10.8678 58.272 12.3095C49.0392 23.5643 42.448 31.4265 38.4982 35.8962C34.5598 40.3523 30.4125 43.3571 26.0561 44.9105L19.2219 55.1391Z" fill="currentColor"/>
</svg>
