<svg width="62" height="62" viewBox="0 0 62 62" fill="none" xmlns="http://www.w3.org/2000/svg">
<path d="M57.7023 2.00967C55.0227 -0.66989 50.6914 -0.66989 48.0118 2.00967L45.0264 4.99512L57.0049 16.9736L59.9903 13.9882C62.6699 11.3086 62.6699 6.97726 59.9903 4.2977L57.7023 2.00967ZM21.0939 28.9276C20.3475 29.674 19.7725 30.5916 19.4421 31.6072L15.8204 42.4722C15.4656 43.5245 15.747 44.6869 16.5301 45.4822C17.3131 46.2775 18.4755 46.5466 19.54 46.1918L30.4051 42.5701C31.4084 42.2398 32.326 41.6647 33.0846 40.9184L52.8571 21.1214L40.8786 9.14293L21.0939 28.9276ZM11.746 7.18526C5.26124 7.18526 0 12.4465 0 18.9313V50.254C0 56.7388 5.26124 62 11.746 62H43.0687C49.5535 62 54.8147 56.7388 54.8147 50.254V38.508C54.8147 36.3423 53.0651 34.5926 50.8994 34.5926C48.7337 34.5926 46.9841 36.3423 46.9841 38.508V50.254C46.9841 52.4197 45.2344 54.1693 43.0687 54.1693H11.746C9.58035 54.1693 7.83068 52.4197 7.83068 50.254V18.9313C7.83068 16.7656 9.58035 15.0159 11.746 15.0159H23.492C25.6577 15.0159 27.4074 13.2663 27.4074 11.1006C27.4074 8.93493 25.6577 7.18526 23.492 7.18526H11.746Z" fill="#014553"/>
</svg>
