<svg width="70" height="70" viewBox="0 0 70 70" fill="none" xmlns="http://www.w3.org/2000/svg">
<path d="M4.98003 0.856622C3.83757 -0.285541 1.99019 -0.285541 0.859883 0.856622C-0.270423 1.99879 -0.282577 3.84569 0.84773 4.98785L65.02 69.1434C66.1624 70.2855 68.0098 70.2855 69.1401 69.1434C70.2704 68.0012 70.2826 66.1543 69.1401 65.0243L57.4238 53.3111C57.752 53.0194 58.0801 52.7278 58.3961 52.4362C64.0841 47.1507 67.8883 40.8445 69.6992 36.5067C70.1003 35.5468 70.1003 34.4775 69.6992 33.5176C67.8883 29.1798 64.0841 22.8615 58.3961 17.5881C52.6717 12.2783 44.8081 7.79465 34.9878 7.79465C28.0845 7.79465 22.1534 10.0061 17.2432 13.1652L4.98003 0.856622ZM24.8515 20.7351C27.7077 18.6938 31.2202 17.4909 35 17.4909C44.6623 17.4909 52.5015 25.3281 52.5015 34.9879C52.5015 38.7667 51.2983 42.2661 49.2564 45.1337L45.0391 40.9174C46.5826 38.3171 47.1052 35.1215 46.2666 31.9623C44.6015 25.7412 38.1965 22.0474 31.9737 23.712C30.9285 23.9915 29.944 24.4046 29.0568 24.9271L24.8394 20.7108L24.8515 20.7351ZM39.5334 51.8894C38.0871 52.2783 36.5678 52.4848 35 52.4848C25.3377 52.4848 17.4985 44.6476 17.4985 34.9879C17.4985 33.4204 17.7051 31.9016 18.094 30.4557L8.43172 20.7959C4.46957 25.2673 1.74711 30.0061 0.300807 33.4933C-0.100269 34.4532 -0.100269 35.5225 0.300807 36.4824C2.11173 40.8202 5.91588 47.1385 11.6039 52.4119C17.3283 57.7218 25.1919 62.2054 35.0122 62.2054C39.5455 62.2054 43.6657 61.2455 47.3483 59.7023L39.5455 51.9016L39.5334 51.8894Z" fill="#014553"/>
</svg>
