<svg viewBox="0 0 50 49" fill="none" xmlns="http://www.w3.org/2000/svg">
<path fill-rule="evenodd" clip-rule="evenodd" d="M31.4713 33.8258C27.6023 36.8555 22.6963 38.3183 17.7612 37.9137C12.826 37.5091 8.23625 35.2679 4.93452 31.6503C1.63279 28.0327 -0.130243 23.3135 0.00750408 18.4617C0.145251 13.61 2.17333 8.99405 5.6752 5.56202C9.17707 2.12998 13.8869 0.142355 18.8374 0.00735443C23.7879 -0.127646 28.6032 1.60023 32.2944 4.83611C35.9856 8.07199 38.2724 12.5702 38.6852 17.407C39.098 22.2437 37.6055 27.0518 34.5141 30.8437L49.3148 45.3463C49.5263 45.5395 49.6959 45.7724 49.8136 46.0313C49.9313 46.2901 49.9946 46.5695 49.9997 46.8528C50.0048 47.1361 49.9516 47.4175 49.8433 47.6802C49.735 47.943 49.5739 48.1816 49.3694 48.382C49.165 48.5824 48.9215 48.7403 48.6534 48.8464C48.3853 48.9525 48.0982 49.0047 47.8091 48.9997C47.52 48.9947 47.2349 48.9327 46.9708 48.8173C46.7068 48.702 46.4691 48.5357 46.272 48.3284L31.4713 33.8258ZM8.71922 29.4314C6.61234 27.3663 5.17738 24.7355 4.59569 21.8714C4.014 19.0072 4.31168 16.0384 5.45112 13.3401C6.59055 10.6417 8.5206 8.33496 10.9973 6.71133C13.4741 5.0877 16.3863 4.22008 19.3661 4.21812C22.3458 4.21615 25.2592 5.07993 27.7382 6.70029C30.2172 8.32065 32.1504 10.6249 33.2935 13.3217C34.4367 16.0185 34.7384 18.987 34.1607 21.8519C33.5829 24.7167 32.1516 27.3495 30.0475 29.4173L30.0332 29.4314L30.0188 29.4426C27.1916 32.2071 23.3603 33.7586 19.3666 33.7565C15.373 33.7544 11.5434 32.1988 8.71922 29.4314Z" fill="#014553"/>
</svg>
