<svg width="65" height="56" viewBox="-2 -2 84 84" fill="none" xmlns="http://www.w3.org/2000/svg">
<path d="M8.125 4C8.125 1.7875 6.30957 0 4.0625 0C1.81543 0 0 1.7875 0 4V46C0 51.525 4.54492 56 10.1562 56H60.9375C63.1846 56 65 54.2125 65 52C65 49.7875 63.1846 48 60.9375 48H10.1562C9.03906 48 8.125 47.1 8.125 46V4ZM59.7441 14.825C61.3311 13.2625 61.3311 10.725 59.7441 9.1625C58.1572 7.6 55.5801 7.6 53.9932 9.1625L40.625 22.3375L33.3379 15.175C31.751 13.6125 29.1738 13.6125 27.5869 15.175L15.3994 27.175C13.8125 28.7375 13.8125 31.275 15.3994 32.8375C16.9863 34.4 19.5635 34.4 21.1504 32.8375L30.4688 23.6625L37.7559 30.8375C39.3428 32.4 41.9199 32.4 43.5068 30.8375L59.7568 14.8375L59.7441 14.825Z" fill="currentColor"/>
</svg>
