<svg width="70" height="54" viewBox="0 0 70 54" fill="none" xmlns="http://www.w3.org/2000/svg">
<path d="M35 0C25.1831 0 17.3223 4.43572 11.5998 9.71518C5.91383 14.9585 2.111 21.2143 0.300703 25.5174C-0.100234 26.4696 -0.100234 27.5304 0.300703 28.4826C2.111 32.7857 5.91383 39.0536 11.5998 44.2848C17.3223 49.5522 25.1831 54 35 54C44.8169 54 52.6777 49.5643 58.4002 44.2848C64.0862 39.0415 67.889 32.7857 69.6993 28.4826C70.1002 27.5304 70.1002 26.4696 69.6993 25.5174C67.889 21.2143 64.0862 14.9464 58.4002 9.71518C52.6777 4.44777 44.8169 0 35 0ZM17.5046 27C17.5046 17.4174 25.3411 9.64286 35 9.64286C44.6589 9.64286 52.4954 17.4174 52.4954 27C52.4954 36.5826 44.6589 44.3571 35 44.3571C25.3411 44.3571 17.5046 36.5826 17.5046 27ZM35 19.2857C35 23.5406 31.5131 27 27.2242 27C25.827 27 24.5149 26.6384 23.3728 25.9875C23.2513 27.3013 23.3607 28.6513 23.7252 29.9893C25.3897 36.1607 31.7925 39.825 38.0131 38.1737C44.2337 36.5223 47.9272 30.1701 46.2627 23.9987C44.7804 18.4902 39.5197 14.9826 33.9794 15.4647C34.6234 16.5857 35 17.8875 35 19.2857Z" fill="#014553"/>
</svg>
