<svg width="47" height="67" viewBox="0 0 47 67" fill="none" xmlns="http://www.w3.org/2000/svg">
<path d="M23.3333 31.6667C21.1232 31.6667 19.0036 30.7887 17.4408 29.2259C15.878 27.6631 15 25.5435 15 23.3333C15 21.1232 15.878 19.0036 17.4408 17.4408C19.0036 15.878 21.1232 15 23.3333 15C25.5435 15 27.6631 15.878 29.2259 17.4408C30.7887 19.0036 31.6667 21.1232 31.6667 23.3333C31.6667 24.4277 31.4511 25.5113 31.0323 26.5224C30.6135 27.5334 29.9997 28.4521 29.2259 29.2259C28.4521 29.9997 27.5334 30.6135 26.5224 31.0323C25.5113 31.4511 24.4277 31.6667 23.3333 31.6667ZM23.3333 0C17.1449 0 11.21 2.45833 6.83418 6.83417C2.45833 11.21 0 17.1449 0 23.3333C0 40.8333 23.3333 66.6667 23.3333 66.6667C23.3333 66.6667 46.6667 40.8333 46.6667 23.3333C46.6667 17.1449 44.2083 11.21 39.8325 6.83417C35.4566 2.45833 29.5217 0 23.3333 0Z" fill="white"/>
</svg>
