<svg width="45" height="45" viewBox="0 0 45 45" fill="none" xmlns="http://www.w3.org/2000/svg">
<path d="M40.7322 0.732233C41.7085 -0.244077 43.2911 -0.244077 44.2674 0.732233C45.2437 1.70854 45.2437 3.29108 44.2674 4.26739L26.035 22.4998L44.2674 40.7322C45.2437 41.7085 45.2437 43.2911 44.2674 44.2674C43.2911 45.2437 41.7085 45.2437 40.7322 44.2674L22.4998 26.035L4.26739 44.2674C3.29108 45.2437 1.70854 45.2437 0.732233 44.2674C-0.244077 43.2911 -0.244077 41.7085 0.732233 40.7322L18.9647 22.4998L0.732233 4.26739C-0.244078 3.29108 -0.244078 1.70854 0.732233 0.732233C1.70854 -0.244078 3.29108 -0.244078 4.26739 0.732233L22.4998 18.9647L40.7322 0.732233Z" fill="white"/>
</svg>
