<svg width="53" height="48" viewBox="0 0 53 48" fill="none" xmlns="http://www.w3.org/2000/svg">
<path d="M24.5247 0.00404793C23.8704 0.0060563 23.1467 0.295261 22.4863 0.943965L10.8283 13.9361H2.03846C0.915269 13.9361 0 14.8379 0 15.9445V32.0114C0 33.118 0.915269 34.0198 2.03846 34.0198H10.8303L22.4231 46.9497C24.4615 48.958 26.5 47.9298 26.5 45.1923V2.44823C26.5 0.859613 25.6173 -0.00599386 24.5247 3.12423e-05V0.00404793ZM39.3036 4.02079C38.87 4.0953 38.4726 4.30605 38.1707 4.62152C37.8688 4.937 37.6786 5.34027 37.6286 5.77105C37.5786 6.20184 37.6715 6.637 37.8933 7.01149C38.1151 7.38598 38.4539 7.6797 38.8592 7.84874C41.8922 9.3503 44.4405 11.6549 46.2182 14.5039C47.9959 17.3529 48.9325 20.6337 48.9231 23.9779C48.9231 31.0554 44.8462 37.1328 38.8572 40.1072C38.5846 40.2006 38.3353 40.35 38.1257 40.5454C37.9162 40.7408 37.7511 40.9779 37.6415 41.2409C37.5318 41.5039 37.4801 41.7868 37.4897 42.0709C37.4993 42.3551 37.5701 42.634 37.6973 42.8892C37.8244 43.1444 38.0052 43.3701 38.2275 43.5513C38.4498 43.7326 38.7087 43.8652 38.9869 43.9406C39.2652 44.0159 39.5565 44.0322 39.8416 43.9883C40.1267 43.9444 40.3991 43.8414 40.6408 43.6861C47.965 40.0449 53 32.5898 53 23.9779C53 15.3661 47.963 7.911 40.6408 4.26982C40.292 4.078 39.8936 3.9914 39.4952 4.02079C39.4314 4.01783 39.3674 4.01783 39.3036 4.02079ZM34.4622 11.8012C34.0233 11.833 33.6066 12.0038 33.2744 12.2882C32.9422 12.5727 32.7124 12.9554 32.6192 13.3792C32.5261 13.8029 32.5747 14.245 32.7577 14.6394C32.9407 15.0337 33.2483 15.3591 33.6346 15.5669C36.78 17.4929 38.7308 20.5436 38.7308 23.9779C38.7308 27.4364 36.7494 30.5272 33.5714 32.4513C33.3218 32.5796 33.1018 32.7575 32.9254 32.9737C32.749 33.19 32.62 33.4399 32.5465 33.7077C32.473 33.9755 32.4566 34.2554 32.4984 34.5298C32.5401 34.8042 32.6391 35.067 32.7892 35.3018C32.9392 35.5366 33.1369 35.7382 33.37 35.894C33.603 36.0497 33.8663 36.1562 34.1432 36.2067C34.4201 36.2572 34.7046 36.2506 34.9788 36.1874C35.253 36.1242 35.5109 36.0057 35.7363 35.8394C39.9559 33.2887 42.8077 28.9507 42.8077 23.9779C42.8077 19.0353 39.9803 14.6732 35.7995 12.1165C35.4579 11.9015 35.059 11.7918 34.6538 11.8012C34.59 11.7982 34.5261 11.7982 34.4622 11.8012Z" fill="white"/>
</svg>
