<svg width="55" height="62" viewBox="0 0 55 62" fill="none" xmlns="http://www.w3.org/2000/svg">
<path d="M25.453 4.77293C31.8799 -1.59098 42.3092 -1.59098 48.7361 4.77293C55.163 11.1368 55.163 21.464 48.7361 27.828L29.9816 46.3988C26.0477 50.2941 19.678 50.2941 15.7441 46.3988C11.8102 42.5034 11.8102 36.1962 15.7441 32.3008L33.2179 15.0209C34.6473 13.6054 36.9688 13.6054 38.3982 15.0209C39.8277 16.4363 39.8277 18.735 38.3982 20.1505L20.9245 37.4418C19.8495 38.5062 19.8495 40.2274 20.9245 41.2805C21.9994 42.3336 23.7377 42.3449 24.8012 41.2805L43.5557 22.7096C47.1237 19.1767 47.1237 13.4356 43.5557 9.90256C39.9878 6.36957 34.1899 6.36957 30.6219 9.90256L11.8674 28.4734C5.79504 34.4863 5.79504 44.236 11.8674 50.2488C17.9398 56.2617 27.7859 56.2617 33.8583 50.2488L48.7475 35.5167C50.177 34.1013 52.4984 34.1013 53.9279 35.5167C55.3574 36.9322 55.3574 39.2309 53.9279 40.6464L39.0386 55.3672C30.1073 64.211 15.6297 64.211 6.69846 55.3672C-2.23282 46.5234 -2.23282 32.1876 6.69846 23.3438L25.453 4.77293Z" fill="white"/>
</svg>
